<?xml version="1.0" encoding="UTF-8"?>
<svg width="134px" height="46px" viewBox="0 0 134 46" version="1.1" xmlns="http://www.w3.org/2000/svg" xmlns:xlink="http://www.w3.org/1999/xlink">
    <!-- Generator: Sketch 50.2 (55047) - http://www.bohemiancoding.com/sketch -->
    <title>LOGO</title>
    <desc>Created with Sketch.</desc>
    <defs>
        <linearGradient x1="100%" y1="59.0324519%" x2="0%" y2="59.0324521%" id="linearGradient-1">
            <stop stop-color="#FF3C00" offset="0%"></stop>
            <stop stop-color="#FF6E00" offset="100%"></stop>
        </linearGradient>
        <path d="M124.839188,12.096019 L118.150307,12.0967485 C117.874185,12.0967766 117.650358,12.320626 117.650358,12.5967485 L117.650359,17.9768411 C117.650359,18.2529633 117.874185,18.4768126 118.150307,18.4768411 L124.698433,18.477672 C125.250677,18.4777291 125.698329,18.9254276 125.698329,19.477672 L125.698433,20.9577225 C125.698433,21.5100073 125.250717,21.9577225 124.698433,21.9577225 L118.151116,21.9577794 C117.874996,21.9577794 117.651148,22.1816024 117.651116,22.4577225 L117.650307,29.0632411 C117.651116,30.0795022 118.35651,30.8040973 119.345033,30.8040973 L124.839188,30.8043297 C125.391382,30.8043297 125.839059,31.2519033 125.839188,31.8040973 L125.840125,33.2849786 C125.840253,33.8372634 125.392642,34.2850827 124.840357,34.285211 C124.840237,34.285211 124.840117,34.285211 124.839997,34.285211 L119.345033,34.2841477 C116.521839,34.2841477 114.263284,31.9641141 114.262475,29.0632411 L114.262503,12.4505 C114.262503,12.1743576 114.038646,11.9505 113.762503,11.9505 C113.762494,11.9505 113.762484,11.9505 113.762475,11.9505 L100.221812,11.9514578 C99.9457308,11.9514735 99.7219111,12.1752493 99.7218411,12.451331 L99.7202349,17.8314235 C99.7201649,18.1075659 99.9439657,18.3314802 100.220108,18.3315503 C100.220137,18.3315503 100.220166,18.3315503 100.220195,18.3315503 L109.026875,18.3322037 C109.579148,18.3322483 110.026822,18.7799814 110.026794,19.3322544 L110.026066,33.2841477 C110.026038,33.8364127 109.578331,34.284097 109.026066,34.284097 L107.638233,34.2842133 C107.085948,34.2842133 106.638233,33.8364981 106.638233,33.2842133 C106.638233,33.2841915 106.638233,33.2841696 106.638233,33.2841477 L106.639103,22.4568916 C106.639122,22.1807492 106.415279,21.9568769 106.139136,21.9568588 C106.139105,21.9568587 106.139073,21.9568588 106.139042,21.9568588 L100.362568,21.9577225 C100.086449,21.9577564 99.862629,22.1816041 99.862629,22.4577225 L99.8628129,33.2841477 C99.8628129,33.8364325 99.4150976,34.2841477 98.8628129,34.2841477 C98.8627311,34.2841477 98.8626494,34.2841477 98.8625677,34.2841477 L97.4739261,34.2833167 C96.9217371,34.2831813 96.4741713,33.8355058 96.4741713,33.2833168 L96.473926,11.8059134 C96.473926,9.91963959 97.885523,8.46961856 99.7210035,8.47044951 L111.2216,8.46961855 C111.497729,8.46959943 111.721566,8.24574741 111.721566,7.96961856 L111.722091,6.71582503 C111.722091,6.16373184 112.169507,5.71609598 112.7216,5.71582515 L114.109433,5.71445662 C114.661718,5.7141857 115.109652,6.16168126 115.109923,6.71396595 C115.109923,6.71403164 115.109923,6.71409733 115.109923,6.71416301 L115.110242,7.97044949 C115.110323,8.24653455 115.334157,8.47030275 115.610242,8.47030275 L121.950546,8.47044951 C122.226688,8.47044951 122.450546,8.24659189 122.450546,7.97044951 L122.450546,6.71499407 C122.450546,6.16270932 122.898261,5.71499407 123.450546,5.71499407 L124.838379,5.71512085 C125.390614,5.71512085 125.838309,6.16275884 125.838379,6.71499408 L125.839086,11.0959176 C125.839156,11.6482023 125.391498,12.0959743 124.839213,12.0960443 C124.839205,12.0960443 124.839196,12.0960443 124.839188,12.0960443 Z" id="path-2"></path>
        <filter x="-47.7%" y="-35.0%" width="195.3%" height="198.0%" filterUnits="objectBoundingBox" id="filter-3">
            <feOffset dx="0" dy="4" in="SourceAlpha" result="shadowOffsetOuter1"></feOffset>
            <feGaussianBlur stdDeviation="4" in="shadowOffsetOuter1" result="shadowBlurOuter1"></feGaussianBlur>
            <feColorMatrix values="0 0 0 0 0.835294118   0 0 0 0 0.333333333   0 0 0 0 0  0 0 0 0.4 0" type="matrix" in="shadowBlurOuter1"></feColorMatrix>
        </filter>
        <path d="M82.1386206,7.49983909 C86.2186565,7.49983909 89.425234,10.7462083 89.4260691,14.7306192 L89.4260691,20.0745656 C89.4260691,20.6268504 88.9783538,21.0745656 88.4260691,21.0745656 L85.9288955,21.0745656 L70.0233846,21.0734843 C69.4712115,21.0734567 69.0235649,20.6258933 69.0234347,20.0737202 L69.0225996,18.5339943 C69.0224693,17.9817095 69.4700789,17.5338887 70.0223637,17.5337584 C70.0224256,17.5337584 70.0224876,17.5337584 70.0225496,17.5337584 L85.4280604,17.5331488 C85.704193,17.533135 85.9280354,17.3092814 85.9280354,17.0331488 L85.9280604,15.6140712 C85.9280604,13.1065892 83.9606915,11.1148064 81.4839444,11.1148064 L68.2217402,11.1148064 C65.743323,11.1148064 63.7759541,13.1065892 63.7767892,15.6149166 L63.7759541,25.5002799 C63.7759541,28.0094527 65.743323,30.0012355 68.2217402,30.0012355 C68.2217402,30.0012355 87.166434,30.0003901 87.3134021,30.0003901 L87.3125247,32.6889079 C87.3123997,33.2410877 86.8647469,33.6886581 86.3125671,33.6886815 L67.3474468,33.6897534 C63.3392249,33.6153574 60.0608335,30.2962831 60.0599984,26.3118722 L60.0599984,14.8041697 C60.0599984,10.8206042 63.3392249,7.5006845 67.2747978,7.49983909 L82.1386206,7.49983909 Z" id="path-4"></path>
        <filter x="-47.7%" y="-38.2%" width="195.3%" height="206.9%" filterUnits="objectBoundingBox" id="filter-5">
            <feOffset dx="0" dy="4" in="SourceAlpha" result="shadowOffsetOuter1"></feOffset>
            <feGaussianBlur stdDeviation="4" in="shadowOffsetOuter1" result="shadowBlurOuter1"></feGaussianBlur>
            <feColorMatrix values="0 0 0 0 0.835294118   0 0 0 0 0.333333333   0 0 0 0 0  0 0 0 0.4 0" type="matrix" in="shadowBlurOuter1"></feColorMatrix>
        </filter>
    </defs>
    <g id="H5-二期--2018-07-05" stroke="none" stroke-width="1" fill="none" fill-rule="evenodd">
        <g id="8.01" transform="translate(-40.000000, -168.000000)">
            <rect id="home_bg" x="0" y="128" width="750" height="1206"></rect>
            <g id="LOGO" transform="translate(40.000000, 168.000000)">
                <g id="Fill-1">
                    <use fill="black" fill-opacity="1" filter="url(#filter-3)" xlink:href="#path-2"></use>
                    <use fill="#FFFFFF" fill-rule="evenodd" xlink:href="#path-2"></use>
                </g>
                <g id="Fill-4">
                    <use fill="black" fill-opacity="1" filter="url(#filter-5)" xlink:href="#path-4"></use>
                    <use fill="#FFFFFF" fill-rule="evenodd" xlink:href="#path-4"></use>
                </g>
                <path d="M0.0293279992,19.9463902 C0.0293279992,31.6419834 9.75267774,39.879469 19.9844575,39.879469 C31.5439272,39.879469 39.9365969,30.5004495 39.9365969,19.9463902 C39.9365969,17.976952 39.710397,15.7390779 38.690027,12.9891369 C40.9386369,24.5534342 31.6614472,32.588067 22.7219974,32.588067 C16.4114076,32.588067 10.7202677,29.2109966 8.00352779,23.3159283 C5.40651786,17.6817635 5.86710785,10.9771021 10.0473877,6.04720792 C12.1211477,3.60089677 15.5773276,0.64797311 21.4188774,0.0634401973 C10.8792577,-0.536287195 0.0293279992,7.15354782 0.0293279992,19.9463902" id="Fill-1" fill="#FFDCC7"></path>
                <path d="M21.7151994,0.0905045517 C21.6174394,0.0803619122 21.5181194,0.0703621267 21.4189294,0.063505131 C21.5151294,0.0719335216 21.6144494,0.0803619122 21.7151994,0.0905045517 Z M28.7254492,5.17729152 C28.7254492,2.6350084 25.1913993,0.423627275 21.7151994,0.0880500589 C24.2417494,0.318434726 28.0173393,1.29958251 30.2225292,2.92175549 C32.0594292,4.2730252 33.2035591,6.5751836 33.2035591,8.95422347 C33.2035591,19.3084169 14.3109196,18.5896012 14.3109196,30.0746794 C14.3109196,36.4261016 20.5541695,40.8347083 26.5959193,38.7854016 C24.5932694,39.5422685 22.2025694,39.879534 19.9845095,39.879534 C8.16685978,39.879534 0.736579981,29.7513097 0.736579981,23.7935155 C0.736579981,9.24421725 28.7254492,13.9061951 28.7254492,5.17729152 Z" id="Clip-5" fill="#FFFFFF"></path>
            </g>
        </g>
    </g>
</svg>
