<?xml version="1.0" encoding="UTF-8"?>
<svg width="690px" height="72px" viewBox="0 0 690 72" version="1.1" xmlns="http://www.w3.org/2000/svg" xmlns:xlink="http://www.w3.org/1999/xlink">
    <!-- Generator: Sketch 50.2 (55047) - http://www.bohemiancoding.com/sketch -->
    <title>一站式</title>
    <desc>Created with Sketch.</desc>
    <defs>
        <linearGradient x1="100%" y1="59.0324519%" x2="0%" y2="59.0324521%" id="linearGradient-1">
            <stop stop-color="#FF3C00" offset="0%"></stop>
            <stop stop-color="#FF6E00" offset="100%"></stop>
        </linearGradient>
        <rect id="path-2" x="0" y="0.2" width="560" height="608"></rect>
        <linearGradient x1="100%" y1="80.3818645%" x2="-21.1025731%" y2="-109.760975%" id="linearGradient-4">
            <stop stop-color="#FFB870" stop-opacity="0" offset="0%"></stop>
            <stop stop-color="#FF823D" offset="100%"></stop>
        </linearGradient>
        <linearGradient x1="50%" y1="68.859025%" x2="50%" y2="3.061617e-15%" id="linearGradient-5">
            <stop stop-color="#FFE4BD" stop-opacity="0" offset="0%"></stop>
            <stop stop-color="#FFC688" offset="100%"></stop>
        </linearGradient>
        <path d="M310.379621,57.950444 L310.379621,33.8298127 C310.379621,33.2017472 310.852461,32.6925996 311.435739,32.6925996 L351.526974,32.6925996 C352.110252,32.6925996 352.583092,33.2017472 352.583092,33.8298127 L352.583092,49.9509064 C352.73436,56.211304 349.93595,59.2568571 344.187778,59.0876571 L311.435739,59.0876571 C310.852461,59.0876571 310.379621,58.5785095 310.379621,57.950444 Z M348.194038,29.3704766 C348.068753,28.9019259 347.943469,28.3173132 347.818184,27.616627 C347.595375,26.8689582 347.41359,26.3048412 347.272828,25.9242681 C347.199132,25.7250165 347.008597,25.605717 346.811323,25.6353056 C341.281559,26.4614999 336.201687,27.032834 331.481357,27.3628283 C326.792059,27.7012282 320.66581,27.8704256 313.102426,27.8704256 L309.166736,27.8704256 C308.583458,27.8704256 308.110617,27.361278 308.110617,26.7332125 L308.110617,20.5279126 C308.110535,20.3564864 308.182349,20.1942067 308.305997,20.0862242 C308.352535,20.0455819 308.391681,20.0113031 308.423434,19.983388 C314.211235,14.8952201 318.44707,10.3079785 321.131056,3.95735207 C321.21748,3.75283773 321.405333,3.62263805 321.612272,3.62263805 L331.556568,3.62263805 C331.682379,3.62263805 331.784369,3.73245965 331.784369,3.86793146 C331.784369,3.90823568 331.775146,3.94791894 331.757515,3.98347198 C328.214591,11.1039546 323.439086,15.7362164 317.413341,20.1799414 C317.306826,20.258246 317.288686,20.3616552 317.33673,20.4374839 C317.365513,20.4829139 317.413303,20.5100715 317.464377,20.5100222 C327.96739,20.4998798 337.122879,20.1724525 344.9311,19.527731 C345.099312,19.5138418 345.225219,19.3557484 345.21232,19.1746196 C345.210302,19.1462885 345.204884,19.1183583 345.1962,19.0915266 C344.857862,18.0533719 344.297079,16.5874798 343.507077,14.6728968 C342.899469,13.3136207 342.438303,12.2273522 342.123572,11.4140716 C342.107063,11.3714119 342.088808,11.323586 342.068805,11.2705939 C342.011987,11.120192 342.079204,10.9486912 342.218897,10.8875542 C342.240664,10.878028 344.5361,10.8708157 349.105207,10.8659174 C349.292216,10.8658627 349.46528,10.9723582 349.560212,11.1458517 C352.617325,16.7551999 354.94085,22.7657401 356.567235,29.2442543 C356.609982,29.4145332 356.516441,29.589886 356.358305,29.6359157 C356.226308,29.647016 356.178717,29.647016 356.13813,29.647016 L348.535233,29.647016 C348.376975,29.6470157 348.237824,29.5342334 348.194038,29.3704766 Z M319.302994,52.99649 L340.784272,52.99649 C343.053288,53.1656899 344.112145,51.8967095 343.960878,49.1895105 L343.960878,39.8599705 C343.960878,39.5459378 343.724458,39.291364 343.432819,39.291364 L319.302994,39.291364 C319.011355,39.291364 318.774935,39.5459378 318.774935,39.8599705 L318.774935,52.4278835 C318.774935,52.7419162 319.011355,52.99649 319.302994,52.99649 Z" id="path-6"></path>
        <filter x="-24.8%" y="-10.8%" width="149.5%" height="143.3%" filterUnits="objectBoundingBox" id="filter-7">
            <feOffset dx="0" dy="6" in="SourceAlpha" result="shadowOffsetOuter1"></feOffset>
            <feGaussianBlur stdDeviation="3" in="shadowOffsetOuter1" result="shadowBlurOuter1"></feGaussianBlur>
            <feColorMatrix values="0 0 0 0 0.878431373   0 0 0 0 0.223529412   0 0 0 0 0.031372549  0 0 0 0.4 0" type="matrix" in="shadowBlurOuter1"></feColorMatrix>
        </filter>
        <path d="M247.604711,8.81304281 L247.604711,4.76089284 C247.604711,4.13566482 248.084833,3.62881736 248.677094,3.62881736 L294.684811,3.62881736 C295.277071,3.62881736 295.757193,4.13566482 295.757193,4.76089284 L295.757193,8.81304281 C295.757193,9.43827083 295.277071,9.94511828 294.684811,9.94511828 L276.709839,9.94511828 C276.413709,9.94511828 276.173648,10.198542 276.173648,10.511156 L276.173648,32.8757199 C276.173648,33.188334 276.413709,33.4417577 276.709839,33.4417577 L296.988757,33.4417577 C297.581018,33.4417577 298.06114,33.9486051 298.06114,34.5738332 L298.06114,38.8786352 C298.06114,39.5038632 297.581018,40.0107106 296.988757,40.0107106 L276.709839,40.0107106 C276.413709,40.0107106 276.173648,40.2641344 276.173648,40.5767484 L276.173648,58.0801899 C276.173648,58.705418 275.693526,59.2122654 275.101266,59.2122654 L268.030244,59.2122654 C267.437984,59.2122654 266.957862,58.705418 266.957862,58.0801899 L266.957862,40.5767484 C266.957862,40.2641344 266.717801,40.0107106 266.421671,40.0107106 L245.912358,40.0107106 C245.320097,40.0107106 244.839976,39.5038632 244.839976,38.8786352 L244.839976,34.5738332 C244.839976,33.9486051 245.320097,33.4417577 245.912358,33.4417577 L266.421671,33.4417577 C266.717801,33.4417577 266.957862,33.188334 266.957862,32.8757199 L266.957862,10.511156 C266.957862,10.198542 266.717801,9.94511828 266.421671,9.94511828 L248.677094,9.94511828 C248.084833,9.94511828 247.604711,9.43827083 247.604711,8.81304281 Z M253.907572,28.3255356 C253.87715,28.2603735 253.851371,28.2048687 253.830237,28.1590214 C252.027782,24.2489002 250.68191,19.9812108 249.792585,15.3558447 C249.739608,15.0803102 249.908248,14.811608 250.169254,14.7556818 C250.200827,14.7489167 250.232962,14.7455086 250.265178,14.7455086 L250.265578,14.745507 L257.963391,14.745507 L257.963391,14.7454601 C258.231765,14.7454601 258.458811,14.9549044 258.494787,15.2356604 C258.499991,15.2762724 258.504724,15.3128562 258.508985,15.3454118 C259.106255,19.9081408 260.147691,24.1228956 261.633319,27.9897807 C261.726431,28.2321382 261.615803,28.5082917 261.386225,28.6065866 C261.33267,28.6295164 261.275423,28.6413054 261.217631,28.6413054 C261.204531,28.641369 261.1919,28.641369 261.179739,28.641369 L254.388462,28.641369 L254.388462,28.6412991 C254.184286,28.6412991 253.997835,28.5188707 253.907572,28.3255356 Z M281.482526,27.9742422 C283.090291,23.4490743 284.135475,19.2666881 284.618105,15.4269815 C284.624768,15.3739726 284.63235,15.3118824 284.64085,15.2407109 L284.640875,15.2407143 C284.674673,14.9577321 284.902646,14.745507 285.17283,14.745507 L292.803903,14.745507 L292.803903,14.7455223 C293.100026,14.7455223 293.34008,14.9989391 293.34008,15.3115447 C293.34008,15.3485047 293.336651,15.3853759 293.329841,15.4216301 C293.327203,15.4356771 293.324657,15.4491848 293.322202,15.4621534 C292.438672,20.1298601 291.053824,24.3164698 289.167625,28.0220851 C289.124895,28.1060323 289.068648,28.2148414 288.998885,28.3485125 L288.998857,28.3484961 C288.904569,28.5291587 288.724647,28.641369 288.529255,28.641369 L281.920452,28.641369 L281.920452,28.64139 C281.66214,28.64139 281.452736,28.42033 281.452736,28.1476386 C281.452736,28.0884216 281.462827,28.0296875 281.482526,27.9742422 Z" id="path-8"></path>
        <filter x="-22.5%" y="-10.8%" width="145.1%" height="143.2%" filterUnits="objectBoundingBox" id="filter-9">
            <feOffset dx="0" dy="6" in="SourceAlpha" result="shadowOffsetOuter1"></feOffset>
            <feGaussianBlur stdDeviation="3" in="shadowOffsetOuter1" result="shadowBlurOuter1"></feGaussianBlur>
            <feColorMatrix values="0 0 0 0 0.878431373   0 0 0 0 0.223529412   0 0 0 0 0.031372549  0 0 0 0.4 0" type="matrix" in="shadowBlurOuter1"></feColorMatrix>
        </filter>
        <path d="M184.786563,27.2566415 L184.786563,22.9518395 C184.786563,22.3266115 185.266685,21.819764 185.858945,21.819764 L236.70495,21.819764 C237.29721,21.819764 237.777332,22.3266115 237.777332,22.9518395 L237.777332,27.2566415 C237.777332,27.8818695 237.29721,28.388717 236.70495,28.388717 L210.706107,28.388717 C210.495859,28.3886235 210.305004,28.5183215 210.217953,28.7203556 C210.170856,28.8296635 210.131803,28.9198179 210.100797,28.9908188 C207.013995,36.0591058 202.97657,42.0847954 197.988416,47.0680471 C197.873647,47.1827036 197.868654,47.3738689 197.977265,47.4950267 C198.031432,47.5554513 198.106809,47.5896147 198.185615,47.5894572 C208.355364,47.5662017 216.955316,47.0884845 224.035557,46.1562203 C224.302959,46.1210112 224.492692,45.8636309 224.45934,45.5813451 C224.454607,45.5412831 224.445428,45.5019475 224.431993,45.4641483 C223.59813,43.1221549 222.543556,40.6691468 221.263767,38.0926326 C221.139075,37.842509 221.204218,37.6207694 221.37395,37.5264197 C221.423845,37.4986842 221.479387,37.4841903 221.535777,37.4841903 L228.479984,37.4841903 C228.673018,37.4842115 228.851152,37.5937514 228.946377,37.7710104 C229.009523,37.8885572 229.060855,37.984536 229.100371,38.0589468 C232.202634,43.9006503 234.432005,49.963163 235.788542,56.2466441 C235.854342,56.5514283 235.673635,56.8548152 235.384922,56.9242775 C235.301873,56.9336906 232.801956,56.9383971 227.885171,56.9383971 C227.616463,56.9384019 227.38925,56.7284357 227.353691,56.4472651 C227.218074,55.3761925 227.002256,54.3945271 226.706073,53.5009813 C226.6878,53.4458531 226.665177,53.3804347 226.638206,53.3047262 C226.552419,53.0637286 226.323357,52.9142535 226.080792,52.9409187 C215.498785,54.0955224 204.549302,54.6645288 193.08077,54.6645288 L189.54526,54.6645288 C188.952999,54.6645288 188.472877,54.1576813 188.472877,53.5324533 L188.472877,47.8126035 C188.472947,47.669773 188.524104,47.5322242 188.616155,47.4275464 C188.734943,47.2924656 188.828363,47.1857384 188.896415,47.1073649 C193.736655,41.5330458 197.284316,35.5112082 199.539494,29.041692 C199.627184,28.79013 199.505094,28.5111544 199.266796,28.4185824 C199.21595,28.3988301 199.162197,28.3887208 199.108018,28.3887208 C199.083804,28.3887183 194.667446,28.388717 185.858946,28.388717 C185.266685,28.3887177 184.786563,27.8818699 184.786563,27.2566415 Z M189.394456,9.31834688 L189.394456,5.01354487 C189.394456,4.38831685 189.874578,3.8814694 190.466838,3.8814694 L231.866662,3.8814694 C232.458923,3.8814694 232.939045,4.38831685 232.939045,5.01354487 L232.939045,9.31834688 C232.939045,9.9435749 232.458923,10.4504224 231.866662,10.4504224 L190.466838,10.4504224 C189.874578,10.4504224 189.394456,9.9435749 189.394456,9.31834688 Z" id="path-10"></path>
        <filter x="-22.6%" y="-11.3%" width="145.3%" height="145.2%" filterUnits="objectBoundingBox" id="filter-11">
            <feOffset dx="0" dy="6" in="SourceAlpha" result="shadowOffsetOuter1"></feOffset>
            <feGaussianBlur stdDeviation="3" in="shadowOffsetOuter1" result="shadowBlurOuter1"></feGaussianBlur>
            <feColorMatrix values="0 0 0 0 0.878431373   0 0 0 0 0.223529412   0 0 0 0 0.031372549  0 0 0 0.4 0" type="matrix" in="shadowBlurOuter1"></feColorMatrix>
        </filter>
        <path d="M176.778123,31.6352045 C176.750638,31.6315886 176.725252,31.6282454 176.701964,31.6251749 C164.516733,30.0185124 156.104987,28.4118721 151.466498,26.8052103 C151.399345,26.7819499 151.311337,26.7508497 151.202474,26.7119097 C151.090538,26.6718589 150.969202,26.6719837 150.857336,26.7122549 C150.741293,26.75403 150.648205,26.7872457 150.578073,26.8119021 C145.090884,28.741031 136.483928,30.4368674 124.756965,31.8994585 L124.707852,31.9055768 L124.707849,31.9055436 C124.509643,31.9302107 124.330023,31.7805856 124.306656,31.5713467 C124.305001,31.5565229 124.304171,31.5416094 124.304171,31.526683 L124.304171,27.038457 C124.304171,26.8153916 124.4591,26.6260557 124.66816,26.593634 C124.688366,26.5905306 124.706983,26.5876404 124.724014,26.584993 C132.900414,25.3140305 138.685405,24.0430855 142.079138,22.7721239 C142.090283,22.7679501 142.102005,22.7635381 142.114306,22.758888 L142.114317,22.7589208 C142.214884,22.7209031 142.267215,22.6040203 142.231202,22.4978559 C142.215803,22.4524611 142.185683,22.414284 142.146176,22.3900858 C139.015426,20.4724808 136.017416,18.0455832 133.152069,15.1093302 C133.123513,15.080067 133.089321,15.0448843 133.049492,15.0037822 L133.049469,15.003808 C132.913594,14.8635874 132.717566,14.8097595 132.534192,14.8623166 C132.489205,14.8752104 132.449194,14.8864154 132.41416,14.8959315 C131.322013,15.1925862 129.69387,15.489238 127.529696,15.7858936 C126.760419,15.906407 126.148407,16.026919 125.693652,16.1474317 C125.670503,16.1535661 125.646049,16.1602894 125.62029,16.1676018 C125.453243,16.2150112 125.281412,16.1104973 125.236494,15.934154 C125.229362,15.9061552 125.22575,15.8772878 125.22575,15.8482945 L125.22575,12.1039604 C125.22575,11.8899162 125.356667,11.7003603 125.549709,11.634897 C125.581763,11.6239998 125.610303,11.6142596 125.635323,11.6056516 C131.385193,9.62741395 135.688714,6.28978414 138.546001,1.59267204 C138.577331,1.54116883 138.616226,1.47621864 138.662685,1.39782147 L138.662752,1.39786542 C138.760744,1.23251039 138.932487,1.13207547 139.11725,1.13207547 L147.668712,1.13207547 L147.668712,1.13213573 C147.866207,1.13213573 148.026308,1.30114905 148.026308,1.50963755 C148.026308,1.57590157 148.009786,1.64099823 147.978402,1.69838492 C147.862943,1.90950275 147.728153,2.14181913 147.574031,2.39533565 C147.299362,2.89734097 147.051983,3.30957254 146.83189,3.6320341 C146.729235,3.78243642 146.761513,3.99221241 146.903985,4.10058187 C146.958114,4.14175499 147.023141,4.16390995 147.089858,4.16390995 C147.103474,4.16389991 147.116585,4.16389991 147.129189,4.16389991 L171.614665,4.16389991 C172.206925,4.16389991 172.687047,4.67074736 172.687047,5.29597538 L172.687047,10.5206573 L172.687007,10.5206573 C172.687007,10.6576142 172.639965,10.7899257 172.554604,10.8930611 C172.496994,10.9626674 172.450124,11.0191624 172.413994,11.0625459 C168.37862,15.9080762 164.27579,19.6430418 160.105394,22.2675405 C159.97445,22.3499458 159.931579,22.5288085 160.009639,22.6670415 C160.04548,22.7305115 160.102825,22.7772366 160.170066,22.7977604 C160.174111,22.7990256 160.178107,22.8002449 160.18205,22.8014468 C165.271064,24.3529902 170.834368,25.5329552 176.87211,26.3413732 C177.113763,26.3737292 177.294915,26.5907516 177.294915,26.8479003 C177.29494,26.8721713 177.29494,26.8946009 177.29494,26.915189 L177.29494,31.1534242 C177.29494,31.4215839 177.089017,31.6389702 176.834997,31.6389702 C176.815983,31.6389702 176.796987,31.6377255 176.778119,31.6352433 L176.778123,31.6352045 Z M125.686539,59.0486095 L125.686539,54.1093444 L125.686588,54.1093444 C125.686588,53.8576662 125.844014,53.636222 126.072927,53.5659006 C126.127365,53.5491772 126.17469,53.5345558 126.2149,53.5220366 C135.168227,50.7344672 140.333678,46.6392994 141.711393,41.2364206 C141.719968,41.2027944 141.729703,41.1632077 141.740599,41.1176604 L141.740582,41.1176559 C141.773429,40.9803476 141.694617,40.8409267 141.564548,40.8062508 C141.545104,40.801067 141.525127,40.7984452 141.505073,40.7984452 L128.141289,40.7984452 C127.549029,40.7984452 127.068907,40.2915978 127.068907,39.6663697 L127.068907,35.6142198 C127.068907,34.9889918 127.549029,34.4821443 128.141289,34.4821443 L142.199552,34.4821443 C142.495682,34.4821443 142.735743,34.2287206 142.735743,33.9161066 L142.735743,30.8138311 C142.735743,30.1886031 143.215865,29.6817556 143.808125,29.6817556 L150.418357,29.6817556 C151.010618,29.6817556 151.49074,30.1886031 151.49074,30.8138311 L151.49074,33.9161066 C151.49074,34.2287206 151.730801,34.4821443 152.026931,34.4821443 L171.38427,34.4821443 C171.976531,34.4821443 172.456653,34.9889918 172.456653,35.6142198 L172.456653,49.1359624 C172.61025,55.5365127 169.922339,58.5683068 164.39284,58.2314357 L156.94062,58.2314357 C156.34836,58.2314357 155.868238,57.7245883 155.868238,57.0993603 L155.868238,53.5525144 C155.868238,52.9272864 156.34836,52.4204389 156.94062,52.4204389 L160.476131,52.4204389 C162.780089,52.4204389 163.855253,51.2414079 163.701656,48.8833104 L163.701656,41.364483 C163.701656,41.0518689 163.461595,40.7984452 163.165465,40.7984452 L151.489454,40.7984452 L151.489454,40.7983441 C151.227471,40.7983441 151.003833,40.9981647 150.96054,41.2709284 C150.958124,41.2861473 150.955805,41.3005426 150.953583,41.3141142 C149.496675,50.2119814 141.2143,56.2431793 126.106226,59.4078797 L126.102029,59.4087587 L126.102034,59.4087893 C125.913601,59.4482386 125.730553,59.3189607 125.693183,59.1200389 C125.688764,59.0965153 125.686539,59.0725913 125.686539,59.0486095 Z M161.213144,10.4802008 L141.304988,10.4802008 C141.187264,10.4801964 141.072812,10.5210961 140.979294,10.5965839 C140.87228,10.6829661 140.787182,10.7508753 140.724002,10.8003116 C139.77815,11.5404083 138.788,12.1833272 137.753537,12.7290794 C137.722765,12.7453137 137.687983,12.7634237 137.64919,12.7834096 L137.649207,12.783446 C137.593919,12.8119304 137.570972,12.8823364 137.597955,12.9407023 C137.616629,12.9810977 137.655484,13.0067212 137.698063,13.0067212 L141.643648,13.0067212 L141.643648,13.0068102 C141.754592,13.0068102 141.862803,13.0431459 141.953361,13.1108068 C142.049555,13.1826795 142.126134,13.2397543 142.183098,13.2820312 C144.883438,15.2861446 147.714093,17.1472918 150.675134,18.8655201 C150.702723,18.8815297 150.735173,18.9003172 150.772485,18.9218826 L150.772439,18.9219711 C150.932946,19.0147427 151.127184,19.014714 151.287667,18.9218948 C151.367801,18.8755471 151.434173,18.8369329 151.486782,18.8060521 C154.982831,16.753928 158.286025,14.1379967 161.396446,10.9581922 C161.500984,10.8513221 161.503662,10.6752246 161.402427,10.5648674 C161.352792,10.5107597 161.284493,10.4802143 161.213144,10.4802143 L161.213144,10.4802008 Z" id="path-12"></path>
        <filter x="-22.6%" y="-10.3%" width="145.3%" height="141.1%" filterUnits="objectBoundingBox" id="filter-13">
            <feOffset dx="0" dy="6" in="SourceAlpha" result="shadowOffsetOuter1"></feOffset>
            <feGaussianBlur stdDeviation="3" in="shadowOffsetOuter1" result="shadowBlurOuter1"></feGaussianBlur>
            <feColorMatrix values="0 0 0 0 0.878431373   0 0 0 0 0.223529412   0 0 0 0 0.031372549  0 0 0 0.4 0" type="matrix" in="shadowBlurOuter1"></feColorMatrix>
        </filter>
        <path d="M95.2638991,58.4493574 L95.2638991,52.9781741 L95.2638217,52.9781741 C95.2638217,52.8130466 95.3321143,52.656149 95.4508041,52.548595 C95.5610747,52.4486703 95.6489029,52.3686374 95.7142885,52.3084964 C97.0773209,51.0547952 98.2827625,49.8011066 99.3306381,48.5474051 C99.3395836,48.5367025 99.3490736,48.5253175 99.3591081,48.5132501 C99.5243537,48.3145317 99.5372593,48.0215171 99.3901954,47.8074679 C99.36709,47.7738384 99.3464655,47.7436659 99.3283221,47.7169504 C97.0111135,44.3049575 95.32857,40.4058456 94.28065,36.0195179 C94.2690753,35.9710689 94.2224874,35.9416988 94.1765932,35.9539178 C94.138526,35.964053 94.11185,36.0001979 94.11185,36.0416424 C94.1118851,36.1631548 94.1118851,36.2682066 94.1118851,36.3567977 L94.1118851,57.9020234 C94.1118851,58.5272735 93.6317462,59.0341389 93.0394648,59.0341389 L87.1202075,59.0341389 C86.5279261,59.0341389 86.0477872,58.5272735 86.0477872,57.9020234 L86.0477872,4.58084059 C86.0477872,3.95559046 86.5279261,3.44872508 87.1202075,3.44872508 L112.162897,3.44872508 C112.755178,3.44872508 113.235317,3.95559046 113.235317,4.58084059 L113.235317,13.049842 C113.542523,18.7768527 110.931317,21.4718761 105.401622,21.1349931 L100.253167,21.1349931 C99.6608856,21.1349931 99.1807466,20.6281277 99.1807466,20.0028776 L99.1807466,16.4559063 C99.1807466,15.8306561 99.6608856,15.3237908 100.253167,15.3237908 L102.406386,15.3237908 C104.556823,15.4922323 105.555225,14.4815985 105.401622,12.2918591 L105.401622,10.0786462 C105.401622,9.7660211 105.161553,9.51258841 104.865412,9.51258841 L94.6480952,9.51258841 C94.3519545,9.51258841 94.1118851,9.7660211 94.1118851,10.0786462 L94.1118851,23.600867 C94.1118851,23.9134921 94.3519545,24.1669248 94.6480952,24.1669248 L112.623703,24.1669248 C113.215984,24.1669248 113.696123,24.6737902 113.696123,25.2990403 L113.696123,29.9396493 C113.696127,29.9652687 113.694479,29.9908586 113.691195,30.0162424 C113.663256,30.232219 113.641832,30.3953782 113.626923,30.5057201 C112.718014,37.2326791 110.933068,42.8510693 108.272035,47.3610381 C108.245109,47.4066722 108.213061,47.4603919 108.175888,47.5221973 C108.03704,47.7530564 108.07438,48.055694 108.264613,48.2413048 C108.297872,48.273756 108.327636,48.3026146 108.353906,48.3278806 C110.011078,49.9217521 111.960238,51.3875202 114.201429,52.7252182 C114.240211,52.7483663 114.287384,52.7763189 114.342949,52.8090761 L114.342957,52.8090603 C114.512611,52.9090774 114.617734,53.0981586 114.617734,53.3032909 L114.617734,58.4609591 L114.617689,58.4609591 C114.617689,58.6530042 114.470214,58.8086876 114.288295,58.8086876 C114.235197,58.8086876 114.182886,58.7951365 114.135819,58.7691892 C110.318473,56.6647312 107.122783,54.7647975 104.548673,53.0693421 C104.490202,53.0308295 104.418168,52.9831461 104.332572,52.9262917 L104.332556,52.9263173 C104.144017,52.8010868 103.90177,52.8119598 103.723981,52.9536326 C103.683792,52.985657 103.64849,53.0137228 103.618073,53.0378297 C101.514117,54.7053248 98.9277224,56.5712023 95.8588285,58.635506 C95.8218902,58.6603526 95.7795826,58.6887699 95.7319056,58.7207578 C95.5899184,58.8160133 95.4016654,58.7717301 95.3114273,58.6218429 C95.2803851,58.5702813 95.2638991,58.5104514 95.2638991,58.4493574 Z M62.5467018,58.6425578 L62.5467018,53.147041 L62.5466571,53.147041 C62.5466571,53.0326855 62.5794639,52.9210111 62.6407576,52.8267225 C62.7325168,52.6855687 62.803418,52.5727777 62.8534612,52.4883496 C64.4833913,49.7384874 65.2259414,45.2670504 65.0811325,39.0739221 L65.0811325,4.07551864 C65.0811325,3.45026851 65.5612715,2.94340314 66.1535528,2.94340314 L81.9801305,2.94340314 C82.5724119,2.94340314 83.0525508,3.45026851 83.0525508,4.07551864 L83.0525508,51.4543098 C83.2061534,56.339113 80.9021485,58.6972585 76.1404668,58.528817 L72.835234,58.528817 C72.2429526,58.528817 71.7628137,58.0219516 71.7628137,57.3967015 L71.7628137,54.1023911 C71.7628137,53.477141 72.2429526,52.9702756 72.835234,52.9702756 L74.2972445,52.9702756 C75.8332708,53.1387171 76.5244723,52.4649612 76.3708696,50.9489878 L76.3708696,40.1453018 C76.3708696,39.8326768 76.1308002,39.5792441 75.8346595,39.5792441 L71.7628137,39.5792441 C71.9117124,48.0699709 69.0295364,54.5029276 63.1162017,58.8782935 C63.0972161,58.8923412 63.0767132,58.9074119 63.0546928,58.9235056 L63.0547224,58.9235507 C62.9077172,59.0309904 62.7060414,58.9922826 62.604267,58.8370945 C62.5667833,58.7799386 62.5467018,58.7120747 62.5467018,58.6425578 Z M105.62312,29.9781271 L94.6480952,29.9781271 C94.3519545,29.9781271 94.1118851,30.2315598 94.1118851,30.5441849 L94.1118851,31.9386791 C94.1118851,32.2513042 94.3519545,32.5047369 94.6480952,32.5047369 L99.9232161,32.5047369 C100.164487,32.504729 100.376046,32.6748355 100.440157,32.9203796 C100.456729,32.9838502 100.471222,33.0388986 100.483636,33.0855248 C101.189579,35.7369923 102.130452,38.3884294 103.306278,41.0398971 C103.313542,41.0562775 103.321304,41.0737348 103.329564,41.0922689 C103.388303,41.2240778 103.537138,41.2806618 103.661997,41.218653 C103.716142,41.1917627 103.759347,41.1452512 103.783755,41.0875767 C104.981801,38.2566554 105.738789,34.7348391 106.054739,30.5220416 C106.055858,30.5071212 106.057034,30.4912539 106.058267,30.4744398 C106.076876,30.2207363 105.897137,29.9991451 105.656811,29.979502 C105.645602,29.9785858 105.634363,29.9781271 105.62312,29.9781271 Z M71.7628137,24.4803216 L71.7628137,33.201984 C71.7628137,33.514609 72.0028831,33.7680417 72.2990238,33.7680417 L75.8346595,33.7680417 C76.1308002,33.7680417 76.3708696,33.514609 76.3708696,33.201984 L76.3708696,24.4803216 C76.3708696,24.1676965 76.1308002,23.9142638 75.8346595,23.9142638 L72.2990238,23.9142638 C72.0028831,23.9142638 71.7628137,24.1676965 71.7628137,24.4803216 Z M71.7628137,9.32066325 L71.7628137,17.7896647 C71.7628137,18.1022897 72.0028831,18.3557224 72.2990238,18.3557224 L75.8346595,18.3557224 C76.1308002,18.3557224 76.3708696,18.1022897 76.3708696,17.7896647 L76.3708696,9.32066325 C76.3708696,9.00803818 76.1308002,8.75460549 75.8346595,8.75460549 L72.2990238,8.75460549 C72.0028831,8.75460549 71.7628137,9.00803818 71.7628137,9.32066325 Z" id="path-14"></path>
        <filter x="-23.0%" y="-10.6%" width="146.1%" height="142.6%" filterUnits="objectBoundingBox" id="filter-15">
            <feOffset dx="0" dy="6" in="SourceAlpha" result="shadowOffsetOuter1"></feOffset>
            <feGaussianBlur stdDeviation="3" in="shadowOffsetOuter1" result="shadowBlurOuter1"></feGaussianBlur>
            <feColorMatrix values="0 0 0 0 0.878431373   0 0 0 0 0.223529412   0 0 0 0 0.031372549  0 0 0 0.4 0" type="matrix" in="shadowBlurOuter1"></feColorMatrix>
        </filter>
        <path d="M0.360253453,8.89728494 L0.360253453,5.06468988 C0.360253453,4.4401937 0.839813409,3.93393951 1.4313806,3.93393951 L20.9208737,3.93393951 C21.5124409,3.93393951 21.9920008,4.4401937 21.9920008,5.06468988 L21.9920008,8.89728494 C21.9920008,9.5010459 21.5283638,9.99049087 20.9564385,9.99049087 L20.4564397,9.99049087 C20.1606561,9.99049087 19.9208761,10.243618 19.9208761,10.5558661 L19.9208761,43.049167 C20.3811283,42.8809286 20.9180812,42.7126928 21.5317509,42.5444544 C21.9525824,42.4521572 22.3041498,42.3851779 22.5864557,42.3435162 C22.818734,42.3092374 23.0041235,42.2920981 23.1426257,42.2920981 L23.1426257,47.8439369 C22.9680439,47.9259857 22.7934626,48.0035883 22.6188816,48.0767448 C21.9041637,48.3762403 21.1894507,48.6012177 20.4747329,48.7516801 C20.4410838,48.7587639 20.402835,48.7664444 20.3599864,48.7747217 L20.3599958,48.7747759 C20.1056426,48.8239103 19.9208761,49.0578924 19.9208761,49.3308624 L19.9208761,57.816864 C19.9208761,58.4413602 19.4413161,58.9476143 18.8497489,58.9476143 L14.548504,58.9476143 C13.9569368,58.9476143 13.4773769,58.4413602 13.4773769,57.816864 L13.4773769,51.5351419 C13.4773769,51.2361902 13.2478074,50.9938419 12.964619,50.9938419 C12.9306962,50.9938419 12.8968572,50.9973956 12.8635992,51.0044509 C12.845259,51.0082946 12.8278224,51.0119833 12.8112811,51.0154717 C9.34054401,51.7474225 5.44395783,52.3459265 1.12142986,52.8109979 C1.07154431,52.8163652 1.01413271,52.8224886 0.949195084,52.8293679 L0.94918528,52.8292648 C0.654933837,52.8604372 0.392458168,52.6338915 0.362929463,52.3232608 C0.361146572,52.3045055 0.360253453,52.2856678 0.360253453,52.2668182 L0.360253453,46.5813156 C0.360253453,46.2941476 0.564177943,46.0525955 0.834409793,46.0196691 L1.95722186,45.88286 C2.22745371,45.8499336 2.4313782,45.6083815 2.4313782,45.3212135 L2.4313782,10.5558661 C2.4313782,10.243618 2.19159822,9.99049087 1.89581463,9.99049087 L1.39581583,9.99049087 C0.82389052,9.99049087 0.360253453,9.5010459 0.360253453,8.89728494 Z M23.3727507,27.2817509 L23.3727507,5.5694025 C23.3727507,4.94490631 23.8523106,4.43865212 24.4438778,4.43865212 L33.6530608,4.43865212 C33.9488444,4.43865212 34.1886244,4.18552503 34.1886244,3.87327694 L34.1886244,2.03641421 C34.1886244,1.41191802 34.6681843,0.905663832 35.2597515,0.905663832 L40.0212464,0.905663832 C40.6128136,0.905663832 41.0923735,1.41191802 41.0923735,2.03641421 L41.0923735,3.87327694 C41.0923735,4.18552503 41.3321535,4.43865212 41.6279371,4.43865212 L50.8371201,4.43865212 C51.4286873,4.43865212 51.9082472,4.94490631 51.9082472,5.5694025 L51.9082472,20.0847431 C52.0616646,25.9730864 49.6837304,28.748978 44.7743731,28.4125012 L24.4438778,28.4125012 C23.8523106,28.4125012 23.3727507,27.9062471 23.3727507,27.2817509 Z M21.5317509,36.1142216 L21.5317509,32.319171 C21.5317509,31.6946748 22.0113108,31.1884206 22.602878,31.1884206 L52.9082448,31.1884206 C53.499812,31.1884206 53.979372,31.6946748 53.979372,32.319171 L53.979372,36.1142216 C53.979372,36.7387178 53.499812,37.244972 52.9082448,37.244972 L34.8366821,37.244972 C34.5924177,37.2449249 34.3790958,37.4193864 34.3180629,37.6690685 C34.064335,38.685657 33.7865526,39.5459175 33.4681258,40.3170474 C33.3992714,40.4837913 33.4714989,40.6778886 33.6294506,40.7505757 C33.6687788,40.768674 33.7112202,40.778015 33.7541227,40.778015 C33.8104017,40.7779603 33.8600965,40.7779603 33.9032068,40.7779603 L49.2262453,40.7779603 C49.8178125,40.7779603 50.2973724,41.2842145 50.2973724,41.9087106 L50.2973724,50.1151436 C50.6042072,55.8352485 48.0728579,58.5270222 42.7032483,58.1905454 L34.1091266,58.1905454 C33.5175595,58.1905454 33.0379995,57.6842912 33.0379995,57.059795 L33.0379995,54.0218134 C33.0379995,53.3973172 33.5175595,52.891063 34.1091266,52.891063 L39.4814987,52.891063 C41.4759251,52.891063 42.4731234,51.7975299 42.4731234,49.610431 L42.4731234,47.1275344 C42.4731234,46.8263298 42.2418239,46.5821553 41.9565016,46.5821553 L26.5150026,46.5821553 C25.9234354,46.5821553 25.4438754,46.0759011 25.4438754,45.4514049 L25.4438754,40.904024 C25.4438751,40.8727813 25.449264,40.8336265 25.460042,40.7865596 L25.4630186,40.7873192 C25.479351,40.715997 25.5022395,40.6465281 25.5313584,40.5799009 C25.5737233,40.4829656 25.6025756,40.4161671 25.6179152,40.3795054 C25.9451315,39.5974584 26.2300158,38.7225808 26.4725728,37.7548582 C26.5313523,37.5176294 26.4163234,37.3102877 26.2242345,37.2573001 C26.2044529,37.2518434 24.9973341,37.247734 22.602878,37.244972 C22.0113108,37.244972 21.5317509,36.7387178 21.5317509,36.1142216 Z M9.25236097,44.9696095 C9.29438445,44.958971 9.33229429,44.9495358 9.36609051,44.9413039 C9.88338262,44.8153042 10.4867249,44.6893052 11.1761271,44.5633049 C11.9402426,44.4436001 12.5490143,44.3664821 13.0024508,44.3319499 C13.2701111,44.3115658 13.4773991,44.0763843 13.4773991,43.7930906 C13.4773769,43.780258 13.4773769,43.7679825 13.4773769,43.756264 L13.4773769,36.2962093 C13.4773769,35.9839612 13.2375969,35.7308341 12.9418133,35.7308341 L9.41044099,35.7308341 C9.1146574,35.7308341 8.87487742,35.9839612 8.87487742,36.2962093 L8.87487742,44.6553982 C8.87487742,44.8338667 9.01192599,44.9785439 9.18098396,44.9785439 C9.20502707,44.9785439 9.22898646,44.9755536 9.2523667,44.9696347 L9.25236097,44.9696095 Z M8.87487742,23.1736814 L8.87487742,29.6136202 C8.87487742,29.9258683 9.1146574,30.1789954 9.41044099,30.1789954 L12.9418133,30.1789954 C13.2375969,30.1789954 13.4773769,29.9258683 13.4773769,29.6136202 L13.4773769,23.1736814 C13.4773769,22.8614333 13.2375969,22.6083062 12.9418133,22.6083062 L9.41044099,22.6083062 C9.1146574,22.6083062 8.87487742,22.8614333 8.87487742,23.1736814 Z M8.87487742,10.5558661 L8.87487742,16.4910923 C8.87487742,16.8033404 9.1146574,17.0564675 9.41044099,17.0564675 L12.9418133,17.0564675 C13.2375969,17.0564675 13.4773769,16.8033404 13.4773769,16.4910923 L13.4773769,10.5558661 C13.4773769,10.243618 13.2375969,9.99049087 12.9418133,9.99049087 L9.41044099,9.99049087 C9.1146574,9.99049087 8.87487742,10.243618 8.87487742,10.5558661 Z M30.1216885,23.1130188 L33.6530608,23.1130188 C33.9488444,23.1130188 34.1886244,22.8598917 34.1886244,22.5476436 L34.1886244,19.6406931 C34.1886244,19.328445 33.9488444,19.0753179 33.6530608,19.0753179 L30.1216885,19.0753179 C29.8259049,19.0753179 29.5861249,19.328445 29.5861249,19.6406931 L29.5861249,22.5476436 C29.5861249,22.8598917 29.8259049,23.1130188 30.1216885,23.1130188 Z M45.1593094,9.99049087 L41.6279371,9.99049087 C41.3321535,9.99049087 41.0923735,10.243618 41.0923735,10.5558661 L41.0923735,13.4628166 C41.0923735,13.7750647 41.3321535,14.0281918 41.6279371,14.0281918 L45.1593094,14.0281918 C45.455093,14.0281918 45.694873,13.7750647 45.694873,13.4628166 L45.694873,10.5558661 C45.694873,10.243618 45.455093,9.99049087 45.1593094,9.99049087 Z M29.5861249,10.5558661 L29.5861249,13.4628166 C29.5861249,13.7750647 29.8259049,14.0281918 30.1216885,14.0281918 L33.6530608,14.0281918 C33.9488444,14.0281918 34.1886244,13.7750647 34.1886244,13.4628166 L34.1886244,10.5558661 C34.1886244,10.243618 33.9488444,9.99049087 33.6530608,9.99049087 L30.1216885,9.99049087 C29.8259049,9.99049087 29.5861249,10.243618 29.5861249,10.5558661 Z M43.1634983,23.1130188 C45.0045073,23.2812572 45.8482904,22.2718421 45.694873,20.0847431 L45.694873,19.6406931 C45.694873,19.328445 45.455093,19.0753179 45.1593094,19.0753179 L41.6279371,19.0753179 C41.3321535,19.0753179 41.0923735,19.328445 41.0923735,19.6406931 L41.0923735,22.5476436 C41.0923735,22.8598917 41.3321535,23.1130188 41.6279371,23.1130188 L43.1634983,23.1130188 Z" id="path-16"></path>
        <filter x="-22.4%" y="-10.3%" width="144.8%" height="141.3%" filterUnits="objectBoundingBox" id="filter-17">
            <feOffset dx="0" dy="6" in="SourceAlpha" result="shadowOffsetOuter1"></feOffset>
            <feGaussianBlur stdDeviation="3" in="shadowOffsetOuter1" result="shadowBlurOuter1"></feGaussianBlur>
            <feColorMatrix values="0 0 0 0 0.878431373   0 0 0 0 0.223529412   0 0 0 0 0.031372549  0 0 0 0.4 0" type="matrix" in="shadowBlurOuter1"></feColorMatrix>
        </filter>
        <path d="M280.032567,56.2065865 L280.032567,33.662604 C280.032567,33.0360354 280.509259,32.5281012 281.097289,32.5281012 L310.763934,32.5281012 C311.351963,32.5281012 311.828655,33.0360354 311.828655,33.662604 L311.828655,48.7325016 C311.981155,54.6403855 309.159948,57.509886 303.364949,57.3410893 L281.097289,57.3410893 C280.509259,57.3410893 280.032567,56.8331551 280.032567,56.2065865 Z M261.275163,13.9232293 L261.275163,10.1155847 C261.275163,9.48901611 261.751855,8.98108191 262.339884,8.98108191 L265.775276,8.98108191 C266.069291,8.98108191 266.307637,8.72711481 266.307637,8.41383051 L266.307637,2.26657826 C266.307637,1.64000967 266.784329,1.13207547 267.372359,1.13207547 L273.020376,1.13207547 C273.608405,1.13207547 274.085097,1.64000967 274.085097,2.26657826 L274.085097,8.41383051 C274.085097,8.72711481 274.323443,8.98108191 274.617458,8.98108191 L277.366603,8.98108191 C277.954633,8.98108191 278.431325,9.48901611 278.431325,10.1155847 L278.431325,13.9232293 C278.431325,14.5497979 277.954633,15.0577321 277.366603,15.0577321 L274.617458,15.0577321 C274.323443,15.0577321 274.085097,15.3116992 274.085097,15.6249834 L274.085097,26.1474128 C274.085097,26.3789176 274.261226,26.5665894 274.478491,26.5665894 C274.515389,26.5665894 274.552104,26.561058 274.587556,26.550158 L277.592586,25.626225 C277.846009,25.5483069 278.11073,25.7040466 278.183855,25.9740794 C278.192135,26.0046524 278.198375,27.7188046 278.202576,31.1165359 C278.202576,31.3545456 278.063133,31.5672445 277.853404,31.6491451 C277.807604,31.6670302 277.76621,31.6833842 277.729223,31.6982069 C277.34912,31.8505329 276.91371,32.2389785 276.389387,32.4711204 C275.574504,32.9360022 274.462341,33.4119151 274.438575,33.4209503 C274.226609,33.5015199 274.085097,33.7154151 274.085097,33.9552139 L274.085097,51.0112454 C274.085097,56.4127392 271.645134,59.0290485 266.765135,58.8602518 L263.026131,58.8602518 C262.438101,58.8602518 261.961409,58.3523176 261.961409,57.7257491 L261.961409,54.1712982 C261.961409,53.5447297 262.438101,53.0367955 263.026131,53.0367955 L264.020149,53.0367955 C265.545148,53.0367955 266.307637,52.1084276 266.307637,50.2516641 L266.307637,36.6621751 C266.307601,36.4091382 266.115091,36.2040113 265.877618,36.2040113 C265.842557,36.2040113 265.807628,36.2085806 265.773608,36.2176174 C264.267439,36.6177089 262.710457,36.9615372 261.102632,37.2491094 C260.862562,37.2920477 260.63528,37.1194863 260.594983,36.8636826 C260.588916,36.7504629 260.588916,36.7179941 260.588916,36.6885293 L260.588916,30.2280534 C260.588915,29.9483953 260.780196,29.7104638 261.039542,29.6675269 C261.079852,29.6608532 261.115989,29.6549042 261.147954,29.6496798 C262.717446,29.3931611 264.238433,29.1903171 265.710943,29.041144 C265.744548,29.0377396 265.782335,29.0339687 265.824305,29.0298313 C266.098158,29.0028501 266.307637,28.7580374 266.307637,28.4649921 L266.307637,15.6249834 C266.307637,15.3116992 266.069291,15.0577321 265.775276,15.0577321 L262.339884,15.0577321 C261.751855,15.0577321 261.275163,14.5497979 261.275163,13.9232293 Z M279.346321,30.4720301 L279.346321,25.7463461 L279.346344,25.7463461 C279.346344,25.5550922 279.436796,25.3767154 279.586928,25.2718965 C279.769422,25.1444839 279.91228,25.0422797 280.015502,24.9652842 C284.420907,21.6791945 286.49756,16.6031807 286.245514,9.73711416 C286.243282,9.6763067 286.240231,9.60407489 286.236361,9.52041874 C286.222398,9.21835007 285.988478,8.98108191 285.704646,8.98108191 L280.639791,8.98108191 C280.051762,8.98108191 279.575069,8.47314771 279.575069,7.84657912 L279.575069,4.03893456 C279.575069,3.41236596 280.051762,2.90443176 280.639791,2.90443176 L310.992682,2.90443176 C311.580712,2.90443176 312.057404,3.41236596 312.057404,4.03893456 L312.057404,18.8556384 C312.209904,25.438709 309.388697,28.6457978 303.593697,28.4770011 L298.710949,28.4770011 C298.12292,28.4770011 297.646228,27.9690669 297.646228,27.3424983 L297.646228,23.28166 C297.646228,22.6550914 298.12292,22.1471572 298.710949,22.1471572 L300.848711,22.1471572 C303.136211,22.1471572 304.203695,20.9655982 304.051195,18.6024446 L304.051195,9.5483333 C304.051195,9.23504901 303.812849,8.98108191 303.518834,8.98108191 L294.75822,8.98108191 L294.75822,8.98114424 C294.464237,8.98114424 294.225918,9.23508343 294.225918,9.5483333 C294.225918,9.55107479 294.225936,9.55381624 294.225974,9.55655744 C294.226881,9.62324591 294.227476,9.68197997 294.227758,9.73275963 C294.284408,19.9312521 289.508588,26.9512827 279.900168,30.7930455 C279.876327,30.8025777 279.850089,30.812998 279.821452,30.8243063 L279.821461,30.8243324 C279.638858,30.8964406 279.435969,30.7971646 279.368296,30.6025934 C279.353762,30.5608054 279.346321,30.5165954 279.346321,30.4720301 Z M288.571137,51.7708267 L300.619962,51.7708267 C302.907462,51.7708267 303.974946,50.5892676 303.822446,48.2261141 L303.822446,39.1720028 C303.822446,38.8587185 303.5841,38.6047514 303.290085,38.6047514 L288.571137,38.6047514 C288.277123,38.6047514 288.038776,38.8587185 288.038776,39.1720028 L288.038776,51.2035753 C288.038776,51.5168596 288.277123,51.7708267 288.571137,51.7708267 Z" id="path-18"></path>
        <filter x="-23.3%" y="-10.4%" width="146.6%" height="141.6%" filterUnits="objectBoundingBox" id="filter-19">
            <feOffset dx="0" dy="6" in="SourceAlpha" result="shadowOffsetOuter1"></feOffset>
            <feGaussianBlur stdDeviation="3" in="shadowOffsetOuter1" result="shadowBlurOuter1"></feGaussianBlur>
            <feColorMatrix values="0 0 0 0 0.878431373   0 0 0 0 0.223529412   0 0 0 0 0.031372549  0 0 0 0.4 0" type="matrix" in="shadowBlurOuter1"></feColorMatrix>
        </filter>
        <path d="M129.758325,13.8038196 L129.758325,9.76123079 C129.758325,9.13747801 130.239896,8.63182647 130.833943,8.63182647 L156.720211,8.63182647 C157.017235,8.63182647 157.25802,8.37900071 157.25802,8.06712432 L157.25802,1.69544205 C157.25802,1.07168927 157.739591,0.566037736 158.333639,0.566037736 L165.194907,0.566037736 C165.788955,0.566037736 166.270526,1.07168927 166.270526,1.69544205 L166.270526,8.06712432 C166.270526,8.37900071 166.511311,8.63182647 166.808335,8.63182647 L171.047784,8.63182647 C171.344808,8.63182647 171.585593,8.37900071 171.585593,8.06712432 L171.585593,3.20777744 C171.585593,2.58402466 172.067164,2.07837312 172.661211,2.07837312 L177.673761,2.07837312 C178.267809,2.07837312 178.749379,2.58402466 178.749379,3.20777744 L178.749379,8.06712432 C178.749379,8.37900071 178.990165,8.63182647 179.287188,8.63182647 L181.602289,8.63182647 C182.196337,8.63182647 182.677907,9.13747801 182.677907,9.76123079 L182.677907,13.8038196 C182.677907,14.4275724 182.196337,14.9332239 181.602289,14.9332239 L167.049752,14.9332239 L167.049752,14.9332553 C166.752745,14.9332553 166.511973,15.186067 166.511973,15.4979261 C166.511973,15.5016778 166.512008,15.5054294 166.51208,15.5091804 C166.514502,15.6367857 166.51665,15.7446765 166.518521,15.8328525 C166.710575,24.8796534 167.552261,32.9815642 169.043604,40.1388137 C170.430151,48.540719 172.586968,52.6575908 175.514121,52.4895527 C177.183085,52.4895527 177.973143,51.3939855 177.884313,49.2028213 C177.882639,49.1615263 177.880042,49.1139367 177.876524,49.0600524 L177.876459,49.0600571 C177.856142,48.7488735 178.079921,48.4793148 178.376285,48.4579809 C178.38853,48.4570995 178.4008,48.4566584 178.413074,48.4566584 L182.839599,48.4566584 L182.839599,48.4567602 C183.135938,48.4567602 183.376418,48.7085078 183.377308,49.0196643 C183.377447,49.068217 183.377398,49.1116475 183.377161,49.1499558 C183.338456,55.4033954 180.717466,58.4489935 175.514121,58.2868384 C168.735451,58.6229146 163.959641,53.3297937 161.186548,42.4073168 C159.392196,34.5787234 158.250951,25.7213182 157.762781,15.8348499 C157.757963,15.7372641 157.75211,15.6156133 157.745224,15.4698975 L157.745185,15.4698995 C157.730978,15.1692939 157.494717,14.9332239 157.208075,14.9332239 L130.833943,14.9332239 C130.239896,14.9332239 129.758325,14.4275724 129.758325,13.8038196 Z M130.913774,27.9189499 L130.913774,23.6243052 C130.913774,23.0005524 131.395345,22.4949009 131.989393,22.4949009 L155.489132,22.4949009 C156.08318,22.4949009 156.564751,23.0005524 156.564751,23.6243052 L156.564751,27.9189499 C156.564751,28.5427027 156.08318,29.0483542 155.489132,29.0483542 L148.552234,29.0483542 C148.255211,29.0483542 148.014425,29.30118 148.014425,29.6130564 L148.014425,46.0412333 L148.014389,46.0412333 C148.014389,46.3531306 148.255191,46.6059734 148.552234,46.6059734 C148.577826,46.6059734 148.603384,46.6040556 148.628716,46.6002345 L148.641972,46.5982343 C151.607945,46.1505436 154.690552,45.6392322 157.889862,45.0642884 C157.927547,45.057516 157.969515,45.0499607 158.015765,45.0416224 L158.01577,45.0416476 C158.308496,44.9888735 158.586543,45.1952598 158.636804,45.5026243 C158.641965,45.5341878 158.64456,45.566155 158.64456,45.5981804 L158.64456,50.5391273 C158.644565,50.7972154 158.477923,51.0224623 158.239762,51.086292 C158.147972,51.1108925 158.070284,51.1315861 158.006697,51.1483728 C149.731415,53.333014 140.545359,54.3712456 130.448277,54.2630959 C130.402354,54.262604 130.349498,54.261985 130.289708,54.2612388 L130.289708,54.261203 C129.995217,54.2575276 129.758325,54.0058154 129.758325,53.6965765 L129.758325,48.0125945 L129.758267,48.0125945 C129.758267,47.7011119 129.998443,47.4484363 130.295091,47.4478325 C130.314096,47.4477938 130.332,47.4477538 130.348804,47.4477125 C133.480698,47.4400073 136.329953,47.3706535 138.896631,47.2396497 C138.975862,47.2356058 139.07197,47.2305373 139.184955,47.2244444 L139.184955,47.2244557 C139.470887,47.2090362 139.69519,46.9611109 139.69519,46.6604855 L139.69519,29.6130564 C139.69519,29.30118 139.454404,29.0483542 139.15738,29.0483542 L131.989393,29.0483542 C131.395345,29.0483542 130.913774,28.5427027 130.913774,27.9189499 Z" id="path-20"></path>
        <filter x="-22.4%" y="-10.4%" width="144.8%" height="141.6%" filterUnits="objectBoundingBox" id="filter-21">
            <feOffset dx="0" dy="6" in="SourceAlpha" result="shadowOffsetOuter1"></feOffset>
            <feGaussianBlur stdDeviation="3" in="shadowOffsetOuter1" result="shadowBlurOuter1"></feGaussianBlur>
            <feColorMatrix values="0 0 0 0 0.878431373   0 0 0 0 0.223529412   0 0 0 0 0.031372549  0 0 0 0.4 0" type="matrix" in="shadowBlurOuter1"></feColorMatrix>
        </filter>
        <path d="M90.162626,55.4619807 L90.162626,28.1658434 C90.162626,27.5406154 90.6427479,27.0337679 91.2350084,27.0337679 L98.1046715,27.0337679 C98.4008017,27.0337679 98.6408627,26.7803442 98.6408627,26.4677302 L98.6408627,1.13207547 C98.6408627,0.506847453 99.1209846,1.14852524e-16 99.7132451,0 L105.817575,0 C106.409836,-1.14852524e-16 106.889958,0.506847453 106.889958,1.13207547 L106.889958,9.79269576 C106.889958,10.1053098 107.130019,10.3587335 107.426149,10.3587335 L117.962077,10.3587335 C118.554337,10.3587335 119.034459,10.865581 119.034459,11.490809 L119.034459,15.2903069 C119.034459,15.9155349 118.554337,16.4223824 117.962077,16.4223824 L107.426149,16.4223824 C107.130019,16.4223824 106.889958,16.6758061 106.889958,16.9884201 L106.889958,26.4677302 C106.889958,26.7803442 107.130019,27.0337679 107.426149,27.0337679 L115.899803,27.0337679 C116.492063,27.0337679 116.972185,27.5406154 116.972185,28.1658434 L116.972185,47.7512349 C117.124947,53.8149141 114.528036,56.7624917 109.181373,56.5940562 L91.2350084,56.5940562 C90.6427479,56.5940562 90.162626,56.0872087 90.162626,55.4619807 Z M98.4896293,51.0357114 L105.973392,51.0357114 C108.112057,51.2041469 109.104993,49.9408994 108.952232,47.2459308 L108.952232,33.6634545 C108.952232,33.3508405 108.712171,33.0974168 108.41604,33.0974168 L98.4896293,33.0974168 C98.1934991,33.0974168 97.9534381,33.3508405 97.9534381,33.6634545 L97.9534381,50.4696737 C97.9534381,50.7822877 98.1934991,51.0357114 98.4896293,51.0357114 Z M65.4153405,53.9100334 L65.4153405,47.7235445 L65.4153246,47.7235445 C65.4153246,47.447336 65.6041584,47.2114575 65.8621413,47.1654112 C65.9480577,47.1500763 66.0213199,47.1371255 66.0819277,47.126559 C67.430811,46.8913905 68.737474,46.7027636 70.0019385,46.5606752 C70.0342053,46.5570493 70.0698162,46.5531089 70.108771,46.5488541 L70.1087676,46.5488197 C70.3819054,46.5189859 70.5804175,46.2610536 70.5521568,45.9727118 C70.5496031,45.9466572 70.5452055,45.9208408 70.5390008,45.8954792 C68.2881723,36.6952483 67.1873723,27.3459667 67.2365723,17.8473858 C67.237385,17.6904896 67.2391485,17.4862268 67.2418629,17.2345976 L67.2418905,17.2345979 C67.2452352,16.9245342 67.4842858,16.6750344 67.7780193,16.6750344 L73.8253614,16.6750344 L73.8253614,16.6751054 C74.1175467,16.6751054 74.3559279,16.9220934 74.3613915,17.2304889 C74.364717,17.4181911 74.3676001,17.5730118 74.370041,17.6949512 C74.5539724,26.8837427 75.2797862,35.9230426 76.5475014,44.8130914 C76.5516018,44.8418462 76.5561142,44.8733969 76.5610385,44.9077435 L76.5609994,44.9077498 C76.6027317,45.1988285 76.8600862,45.3990806 77.1358167,45.3550253 C77.1487745,45.3529549 77.161651,45.3503528 77.174417,45.3472248 L78.3546337,45.0580448 L78.3546448,45.0580951 C78.5670101,45.0060608 78.7283958,44.8234793 78.76289,44.5962325 C78.7767608,44.5048526 78.7883862,44.4277873 78.7977662,44.3650368 C79.9200401,36.8572729 80.5706537,28.0123708 80.7496241,17.8300961 C80.7523129,17.6771224 80.7555673,17.4776604 80.7593874,17.2317101 L80.7594653,17.2317115 C80.7642632,16.9228019 81.0028461,16.6750344 81.2955065,16.6750344 L87.5535727,16.6750344 L87.5535727,16.6751042 C87.8496664,16.6751042 88.0896978,16.9284967 88.0896978,17.2410722 C88.0896978,17.2449289 88.0896604,17.2487855 88.0895857,17.2526415 C88.0831561,17.5846188 88.0774989,17.8504577 88.0726142,18.0501581 C87.857947,26.8263801 86.9316908,35.0318723 85.2938224,42.6668436 C85.2394227,42.9204296 85.3900554,43.1725561 85.6302701,43.2299839 C85.7007646,43.246837 85.774083,43.2453491 85.8439119,43.2256485 L85.8468476,43.2248552 C86.1711926,43.1335191 86.5404573,43.042183 86.9546446,42.9508462 C87.253358,42.8191014 87.5170235,42.7131185 87.7456423,42.6328974 C87.7872531,42.6182964 87.8298999,42.6043354 87.8735826,42.5910145 L87.8735667,42.5909562 C88.1580953,42.5041902 88.4553803,42.6773477 88.5375713,42.9777143 C88.5515443,43.0287787 88.5586353,43.081666 88.5586353,43.1348182 L88.5586353,48.3613386 L88.5587371,48.3613386 C88.5587371,48.6015712 88.4151178,48.8156466 88.2004541,48.8953862 C88.0863045,48.9377886 87.9914889,48.9728096 87.9160075,49.0004492 C82.0007502,51.166482 74.8308955,52.9684321 66.4062573,54.4063463 C66.3060889,54.423443 66.1826065,54.4443351 66.0358098,54.4690224 L66.0357977,54.4689423 C65.7433971,54.5181165 65.4685979,54.307748 65.4220166,53.9990711 C65.4175728,53.9696239 65.4153405,53.9398519 65.4153405,53.9100334 Z M65.8736236,12.5111345 L65.8736236,8.71163657 C65.8736236,8.08640855 66.3537455,7.5795611 66.946006,7.5795611 L73.357386,7.5795611 C73.6535163,7.5795611 73.8935772,7.32613737 73.8935772,7.01352336 L73.8935772,1.38472751 C73.8935772,0.75949949 74.3736992,0.252652037 74.9659596,0.252652037 L80.8411485,0.252652037 C81.4334089,0.252652037 81.9135308,0.75949949 81.9135308,1.38472751 L81.9135308,7.01352336 C81.9135308,7.32613737 82.1535918,7.5795611 82.449722,7.5795611 L88.402819,7.5795611 C88.9950795,7.5795611 89.4752014,8.08640855 89.4752014,8.71163657 L89.4752014,12.5111345 C89.4752014,13.1363625 88.9950795,13.64321 88.402819,13.64321 L66.946006,13.64321 C66.3537455,13.64321 65.8736236,13.1363625 65.8736236,12.5111345 Z" id="path-22"></path>
        <filter x="-22.4%" y="-10.6%" width="144.8%" height="142.4%" filterUnits="objectBoundingBox" id="filter-23">
            <feOffset dx="0" dy="6" in="SourceAlpha" result="shadowOffsetOuter1"></feOffset>
            <feGaussianBlur stdDeviation="3" in="shadowOffsetOuter1" result="shadowBlurOuter1"></feGaussianBlur>
            <feColorMatrix values="0 0 0 0 0.878431373   0 0 0 0 0.223529412   0 0 0 0 0.031372549  0 0 0 0.4 0" type="matrix" in="shadowBlurOuter1"></feColorMatrix>
        </filter>
        <path d="M0,31.7022625 L0,26.0335865 C0,25.4106501 0.482933133,24.9056604 1.07866134,24.9056604 L53.6128395,24.9056604 C54.2085678,24.9056604 54.6915009,25.4106501 54.6915009,26.0335865 L54.6915009,31.7022625 C54.6915009,32.3251989 54.2085678,32.8301887 53.6128395,32.8301887 L1.07866134,32.8301887 C0.482933133,32.8301887 0,32.3251989 0,31.7022625 Z" id="path-24"></path>
        <filter x="-21.9%" y="-75.7%" width="143.9%" height="402.9%" filterUnits="objectBoundingBox" id="filter-25">
            <feOffset dx="0" dy="6" in="SourceAlpha" result="shadowOffsetOuter1"></feOffset>
            <feGaussianBlur stdDeviation="3" in="shadowOffsetOuter1" result="shadowBlurOuter1"></feGaussianBlur>
            <feColorMatrix values="0 0 0 0 0.878431373   0 0 0 0 0.223529412   0 0 0 0 0.031372549  0 0 0 0.4 0" type="matrix" in="shadowBlurOuter1"></feColorMatrix>
        </filter>
        <path d="M208.503084,3.39622642 L216.200136,3.39622642 C216.431712,3.39622642 216.637195,3.55275345 216.709904,3.78454227 L232.757428,54.9424346 C232.823682,55.1536431 232.71498,55.3814829 232.514637,55.4513292 C232.475936,55.4648215 232.435437,55.4716981 232.394675,55.4716981 L224.292084,55.4716981 C224.061024,55.4716981 223.855876,55.3158551 223.782758,55.0847818 L219.896521,42.8032791 C219.823403,42.5722058 219.618255,42.4163628 219.387194,42.4163628 L205.336128,42.4163628 C205.105068,42.4163628 204.89992,42.5722058 204.826801,42.8032791 L200.940565,55.0847818 C200.867446,55.3158551 200.662299,55.4716981 200.431238,55.4716981 L192.364228,55.4716981 C192.139015,55.4716981 191.956444,55.2792256 191.956444,55.0417988 C191.956444,54.9959346 191.963406,54.9503659 191.977065,54.906821 L208.01973,3.76442215 C208.088672,3.54464319 208.283508,3.39622642 208.503084,3.39622642 Z M207.24656,35.4146187 C207.220131,35.4146187 207.193802,35.4111899 207.168167,35.4044097 C206.995596,35.3587661 206.890797,35.1742811 206.934093,34.992351 L212.186134,15.6150158 C212.218719,15.4947946 212.337454,15.4252217 212.451336,15.4596203 C212.522729,15.481185 212.578476,15.5402011 212.598703,15.6156292 L217.794922,34.9931985 C217.801221,35.0199574 217.804406,35.0474254 217.804406,35.074996 C217.804406,35.2625644 217.660174,35.4146187 217.482254,35.4146187 L207.24656,35.4146187 Z M240.203462,3.39622642 L246.64649,3.39622642 C247.239554,3.39622642 247.720328,3.90307387 247.720328,4.52830189 L247.720328,54.3396226 C247.720328,54.9648507 247.239554,55.4716981 246.64649,55.4716981 L240.203462,55.4716981 C239.610398,55.4716981 239.129624,54.9648507 239.129624,54.3396226 L239.129624,4.52830189 C239.129624,3.90307387 239.610398,3.39622642 240.203462,3.39622642 Z" id="path-26"></path>
        <filter x="-21.5%" y="-11.5%" width="143.0%" height="146.1%" filterUnits="objectBoundingBox" id="filter-27">
            <feOffset dx="0" dy="6" in="SourceAlpha" result="shadowOffsetOuter1"></feOffset>
            <feGaussianBlur stdDeviation="3" in="shadowOffsetOuter1" result="shadowBlurOuter1"></feGaussianBlur>
            <feColorMatrix values="0 0 0 0 0.878431373   0 0 0 0 0.223529412   0 0 0 0 0.031372549  0 0 0 0.4 0" type="matrix" in="shadowBlurOuter1"></feColorMatrix>
        </filter>
    </defs>
    <g id="H5-二期--2018-07-05" stroke="none" stroke-width="1" fill="none" fill-rule="evenodd">
        <g id="8.01" transform="translate(-30.000000, -880.000000)">
            <rect id="home_bg" x="0" y="128" width="750" height="1206"></rect>
            <g id="banner图片" transform="translate(113.000000, 285.000000)">
                <mask id="mask-3" fill="white">
                    <use xlink:href="#path-2"></use>
                </mask>
                <use id="Rectangle-5" fill="#D8D8D8" opacity="0" xlink:href="#path-2"></use>
                <g id="柱子" mask="url(#mask-3)" fill="url(#linearGradient-4)" opacity="0.400000006">
                    <g transform="translate(9.600000, 347.400000)" id="Rectangle-7">
                        <path d="M0,96 C3.515625,122.069792 24.8489583,136.019792 64,137.85 C104.671875,135.8875 126.005208,121.9375 128,96 L128,265.6 L0,265.6 L0,96 Z"></path>
                    </g>
                </g>
                <path d="M363.212798,402.378906 L363.212798,638.490363 C363.212798,640.074422 363.212798,641.291833 363.212798,642.142597 C364.549604,642.142597 365.872134,641.699169 367.180387,640.812314 L415.071259,614.468344 C416.349326,613.7653 417.143359,612.422277 417.143359,610.963603 L417.143359,369.269531 C416.812117,371.431212 416.333862,372.716889 415.708594,373.126563 C415.115718,373.515012 400.307813,382.541016 369.447656,401.204297 C368.321065,401.885625 366.242778,402.277162 363.212798,402.378906 Z" id="Path-2-Copy-13" fill="url(#linearGradient-5)" opacity="0.140000001" mask="url(#mask-3)"></path>
            </g>
            <g id="一站式" transform="translate(34.000000, 880.000000)">
                <g id="Group-2" transform="translate(323.711366, 0.000000)">
                    <g id="台">
                        <use fill="black" fill-opacity="1" filter="url(#filter-7)" xlink:href="#path-6"></use>
                        <use fill="#FFFFFF" fill-rule="evenodd" xlink:href="#path-6"></use>
                    </g>
                    <g id="平">
                        <use fill="black" fill-opacity="1" filter="url(#filter-9)" xlink:href="#path-8"></use>
                        <use fill="#FFFFFF" fill-rule="evenodd" xlink:href="#path-8"></use>
                    </g>
                    <g id="云">
                        <use fill="black" fill-opacity="1" filter="url(#filter-11)" xlink:href="#path-10"></use>
                        <use fill="#FFFFFF" fill-rule="evenodd" xlink:href="#path-10"></use>
                    </g>
                    <g id="务">
                        <use fill="black" fill-opacity="1" filter="url(#filter-13)" xlink:href="#path-12"></use>
                        <use fill="#FFFFFF" fill-rule="evenodd" xlink:href="#path-12"></use>
                    </g>
                    <g id="服">
                        <use fill="black" fill-opacity="1" filter="url(#filter-15)" xlink:href="#path-14"></use>
                        <use fill="#FFFFFF" fill-rule="evenodd" xlink:href="#path-14"></use>
                    </g>
                    <g id="聘">
                        <use fill="black" fill-opacity="1" filter="url(#filter-17)" xlink:href="#path-16"></use>
                        <use fill="#FFFFFF" fill-rule="evenodd" xlink:href="#path-16"></use>
                    </g>
                </g>
                <g id="招">
                    <use fill="black" fill-opacity="1" filter="url(#filter-19)" xlink:href="#path-18"></use>
                    <use fill="#FFFFFF" fill-rule="evenodd" xlink:href="#path-18"></use>
                </g>
                <g id="式">
                    <use fill="black" fill-opacity="1" filter="url(#filter-21)" xlink:href="#path-20"></use>
                    <use fill="#FFFFFF" fill-rule="evenodd" xlink:href="#path-20"></use>
                </g>
                <g id="站">
                    <use fill="black" fill-opacity="1" filter="url(#filter-23)" xlink:href="#path-22"></use>
                    <use fill="#FFFFFF" fill-rule="evenodd" xlink:href="#path-22"></use>
                </g>
                <g id="一">
                    <use fill="black" fill-opacity="1" filter="url(#filter-25)" xlink:href="#path-24"></use>
                    <use fill="#FFFFFF" fill-rule="evenodd" xlink:href="#path-24"></use>
                </g>
                <g id="AI">
                    <use fill="black" fill-opacity="1" filter="url(#filter-27)" xlink:href="#path-26"></use>
                    <use fill="#FFFFFF" fill-rule="evenodd" xlink:href="#path-26"></use>
                </g>
            </g>
        </g>
    </g>
</svg>
