<?xml version="1.0" encoding="UTF-8"?>
<svg width="32px" height="32px" viewBox="0 0 32 32" version="1.1" xmlns="http://www.w3.org/2000/svg" xmlns:xlink="http://www.w3.org/1999/xlink">
    <!-- Generator: Sketch 50.2 (55047) - http://www.bohemiancoding.com/sketch -->
    <title>Combined Shape</title>
    <desc>Created with Sketch.</desc>
    <defs></defs>
    <g id="H5-二期--2018-07-05" stroke="none" stroke-width="1" fill="none" fill-rule="evenodd">
        <g id="8.01.1" transform="translate(-678.000000, -168.000000)" fill="#999999">
            <path d="M697.716835,185.238945 L709.486812,197.008922 C710.171063,197.693173 710.171063,198.802562 709.486812,199.486812 C708.802562,200.171063 707.693173,200.171063 707.008922,199.486812 L695.238945,187.716835 C694.554695,187.032585 693.445305,187.032585 692.761055,187.716835 L680.991078,199.486812 C680.306827,200.171063 679.197438,200.171063 678.513188,199.486812 C677.828937,198.802562 677.828937,197.693173 678.513188,197.008922 L690.283165,185.238945 C690.967415,184.554695 690.967415,183.445305 690.283165,182.761055 L678.513188,170.991078 C677.828937,170.306827 677.828937,169.197438 678.513188,168.513188 C679.197438,167.828937 680.306827,167.828937 680.991078,168.513188 L692.761055,180.283165 C693.445305,180.967415 694.554695,180.967415 695.238945,180.283165 L707.008922,168.513188 C707.693173,167.828937 708.802562,167.828937 709.486812,168.513188 C710.171063,169.197438 710.171063,170.306827 709.486812,170.991078 L697.716835,182.761055 C697.032585,183.445305 697.032585,184.554695 697.716835,185.238945 Z" id="Combined-Shape"></path>
        </g>
    </g>
</svg>